<svg xmlns="http://www.w3.org/2000/svg" xmlns:xlink="http://www.w3.org/1999/xlink" width="1080" zoomAndPan="magnify" viewBox="0 0 810 1439.999935" height="1920" preserveAspectRatio="xMidYMid meet" version="1.0"><defs><clipPath id="c5a085bad9"><path d="M 222.378906 185 L 243 185 L 243 206 L 222.378906 206 Z M 222.378906 185 " clip-rule="nonzero"/></clipPath></defs><path fill="#040606" d="M 502.429688 946.175781 C 499.777344 938.222656 497.121094 922.972656 495.796875 908.390625 C 494.46875 893.800781 487.839844 867.28125 485.851562 861.320312 C 484.566406 857.457031 483.277344 850.253906 481.992188 841.527344 C 483.371094 840.554688 484.558594 839.640625 485.320312 838.902344 C 488.574219 835.746094 484.277344 831.671875 484.277344 831.671875 C 485.183594 827.613281 486.085938 827.613281 484.277344 823.546875 C 482.46875 819.480469 480.667969 812.714844 478.398438 800.523438 C 476.132812 788.332031 469.609375 785.410156 469.609375 785.410156 C 465.894531 782.4375 444.261719 774.476562 431.878906 769.394531 C 430.835938 766.867188 429.238281 762.753906 428.515625 759.757812 C 430.09375 756.925781 432.128906 756.726562 433.324219 755.148438 C 434.519531 753.570312 433.710938 749.074219 433.347656 746.394531 C 433.632812 745.835938 433.933594 745.296875 434.257812 744.78125 C 435.519531 744.207031 437.695312 744.316406 438.449219 742.960938 C 439.058594 741.851562 439.074219 738.429688 438.921875 735.410156 C 440.746094 728.765625 440.980469 727.710938 441.964844 725.242188 C 444.179688 719.6875 441.226562 717.835938 441.84375 712.285156 C 442.464844 706.734375 440.679688 700.613281 438.089844 696.546875 C 433.769531 689.757812 427.441406 683.121094 418.339844 681.425781 C 405.070312 678.960938 393.652344 686.054688 393.652344 686.054688 C 393.652344 686.054688 387.484375 690.683594 385.628906 695.625 C 383.777344 700.554688 383.164062 703.332031 381.308594 707.039062 C 379.457031 710.742188 381.796875 711.144531 381.308594 715.058594 C 380.503906 721.539062 382.6875 728.644531 384.394531 732.957031 C 386.105469 737.277344 385.960938 739.128906 388.714844 742.214844 C 391.46875 745.300781 393.820312 753.570312 397.53125 756.316406 C 397.53125 756.316406 397.230469 760.171875 395.9375 764.152344 C 395.515625 763.929688 389.921875 760.964844 385.996094 758.832031 C 384.058594 757.785156 382.1875 756.640625 380.394531 755.480469 C 378.765625 753.078125 376.945312 750.539062 376.0625 749.804688 C 374.257812 748.304688 370.996094 749.121094 370.355469 748.710938 L 370.191406 748.609375 L 370.027344 748.503906 C 369.183594 747.957031 367.515625 746.6875 366.730469 743.632812 C 365.835938 740.128906 361.902344 743.578125 361.851562 743.625 C 351.699219 732.472656 341.589844 718.976562 339.175781 714.148438 C 336.132812 708.058594 327.859375 693.570312 327.859375 693.570312 C 327.859375 693.570312 320.921875 677.71875 311.945312 661.839844 C 304.242188 648.214844 294.410156 632.75 290.078125 626.417969 C 290.253906 624.316406 291.046875 613.386719 289.078125 608.613281 C 286.894531 603.304688 280.179688 589.527344 276.824219 590.585938 C 273.625 591.597656 276.582031 597.476562 274.050781 599.066406 C 274.050781 599.066406 270.992188 605.226562 269.402344 607.183594 C 269.402344 607.183594 269.226562 609.132812 269.402344 610.996094 C 269.402344 610.996094 267.28125 612.492188 267.632812 614.796875 C 267.988281 617.089844 272.164062 628.222656 274.050781 629.988281 C 275.941406 631.753906 278.820312 633.167969 278.820312 633.167969 L 279.1875 632.964844 C 283.183594 646.449219 290.59375 670.410156 294.433594 676.203125 C 299.851562 684.390625 311.265625 711.40625 314.921875 720.542969 C 317.367188 726.652344 329.492188 748.078125 340.675781 766.613281 C 340.394531 767.714844 340.066406 768.839844 339.636719 769.96875 C 338.460938 773.09375 343.25 776.589844 343.25 776.589844 C 342.859375 779.738281 347.054688 785.550781 349.949219 789.144531 C 349.632812 791.179688 349.921875 793.488281 351.0625 795.199219 C 353.054688 798.179688 357.007812 800.792969 358 802.78125 C 358.996094 804.773438 358.222656 808.605469 359.878906 818.554688 C 361.539062 828.5 362.199219 843.414062 364.855469 850.375 C 367.507812 857.339844 367.507812 866.621094 365.183594 870.265625 C 362.863281 873.914062 355.570312 893.800781 357.230469 899.101562 C 358.886719 904.410156 362.199219 907.722656 362.535156 910.703125 C 362.832031 913.386719 363.402344 917.660156 364.722656 919.945312 C 362.953125 923.113281 360.898438 927.507812 359.878906 932.253906 C 357.890625 941.53125 361.207031 942.199219 359.878906 946.839844 C 358.554688 951.480469 355.238281 949.492188 355.238281 956.125 C 355.238281 962.75 357.457031 972.375 351.980469 985.632812 C 346.507812 998.890625 341.316406 1017.113281 338.664062 1033.6875 C 336.011719 1050.253906 334.023438 1069.484375 332.699219 1082.078125 C 331.371094 1094.675781 328.871094 1096.664062 325.148438 1107.273438 C 321.425781 1117.882812 313.46875 1166.941406 312.144531 1176.882812 C 310.820312 1186.828125 304.65625 1199.28125 308.632812 1203.257812 C 309.300781 1203.917969 310.601562 1204.691406 312.261719 1205.503906 C 311.199219 1210.183594 310.085938 1214.089844 309.035156 1215.976562 C 305.8125 1221.761719 305.300781 1222.101562 303.433594 1227.984375 C 301.824219 1233.050781 301.382812 1235.164062 299.792969 1240.3125 C 298.132812 1245.664062 296.601562 1250.902344 302 1252.582031 C 307.398438 1254.269531 332.1875 1254.964844 337.230469 1252.71875 C 342.273438 1250.484375 337.109375 1243.933594 337.617188 1233.863281 C 338.015625 1225.984375 335.65625 1221.71875 335.65625 1219.019531 C 335.65625 1218.351562 336.304688 1216.316406 337.28125 1213.578125 C 339.3125 1213.972656 340.859375 1214.152344 341.597656 1214.027344 C 345.402344 1213.363281 352.855469 1209.199219 351.53125 1201.902344 C 350.203125 1194.609375 350.445312 1184.207031 352.433594 1180.226562 C 354.421875 1176.25 361.21875 1171.027344 360.554688 1160.421875 C 359.894531 1149.808594 367.785156 1114.765625 375.460938 1099.863281 C 379.808594 1091.425781 385.078125 1058.222656 390.378906 1044.964844 C 394.433594 1034.835938 400.683594 1008.054688 404.296875 993.59375 C 406.527344 1000.390625 410.023438 1010.222656 415.195312 1022.65625 C 425.707031 1047.941406 426.335938 1063.445312 428.742188 1075.484375 C 431.152344 1087.523438 432.285156 1099.152344 435.898438 1107.582031 C 439.507812 1116.003906 444.710938 1121.046875 439.652344 1129.476562 C 434.597656 1137.90625 445.007812 1160.960938 443.617188 1168.1875 C 442.230469 1175.414062 448.8125 1183.386719 447.253906 1187 C 445.695312 1190.613281 441.082031 1202.015625 452.082031 1205.632812 C 454.34375 1206.371094 456.617188 1207.160156 458.875 1207.886719 C 460.089844 1212.238281 460.949219 1215.550781 460.949219 1216.351562 C 460.949219 1219.050781 457.34375 1226.03125 457.742188 1233.910156 C 458.253906 1243.976562 453.085938 1250.523438 458.132812 1252.765625 C 463.171875 1255.007812 487.96875 1254.308594 493.359375 1252.625 C 498.757812 1250.945312 497.230469 1245.707031 495.574219 1240.355469 C 493.972656 1235.207031 493.535156 1233.089844 491.925781 1228.027344 C 490.0625 1222.144531 487.351562 1219.855469 484.125 1214.070312 C 483.175781 1212.359375 482.441406 1209.3125 481.875 1205.6875 C 486.992188 1199.890625 492.070312 1202.804688 488.453125 1193.171875 C 484.835938 1183.539062 486.089844 1161.589844 482.023438 1145.007812 C 476.152344 1121.082031 480.5 1108.4375 480.214844 1101.21875 C 479.925781 1093.992188 477.351562 1067.207031 474.605469 1057.039062 C 472.382812 1048.78125 473.269531 1025.089844 471.183594 1016.789062 C 467.460938 1001.976562 467.753906 973.210938 467.753906 973.210938 L 460.175781 923.324219 C 461.734375 923.660156 463.0625 923.882812 464.304688 922.640625 C 466.957031 919.988281 466.957031 918.660156 464.304688 911.035156 C 461.65625 903.414062 458.335938 889.160156 458.335938 884.847656 C 458.335938 880.539062 457.339844 871.589844 456.679688 867.945312 C 456.015625 864.300781 454.691406 858.660156 454.691406 855.351562 C 454.691406 852.039062 456.820312 846.582031 457.484375 842.917969 C 458.9375 848.988281 459.996094 854.878906 459.996094 858.664062 C 459.996094 868.609375 469.9375 897.117188 474.609375 906.398438 C 479.277344 915.679688 487.839844 945.511719 490.769531 948.832031 C 493.695312 952.144531 480.550781 962.75 480.550781 969.375 C 480.550781 976.007812 486.515625 987.9375 490.769531 987.9375 C 495.027344 987.9375 503.753906 979.988281 506.40625 974.679688 C 509.058594 969.382812 505.078125 954.128906 502.429688 946.175781 " fill-opacity="1" fill-rule="nonzero"/><path fill="#def4f6" d="M 243.492188 255.976562 L 265.464844 446.164062 C 265.464844 446.164062 283.800781 431.535156 296.535156 433.402344 C 309.261719 435.265625 325.546875 453.40625 359.523438 458.660156 C 393.507812 463.910156 412.160156 459.253906 427.964844 473.28125 C 443.765625 487.3125 458.910156 517.261719 486.398438 524.101562 C 513.890625 530.9375 536.152344 535.878906 551.804688 555.757812 C 567.449219 575.644531 573.054688 602.527344 573.054688 602.527344 C 573.054688 602.527344 577.679688 548.601562 561.359375 501.257812 C 545.042969 453.917969 540.507812 453.058594 530.546875 435.527344 C 512.738281 404.210938 499.246094 364.210938 493.785156 356.890625 C 476.015625 333.078125 441.890625 317.839844 413.117188 308.640625 C 380.078125 298.070312 355.792969 303.578125 330.207031 284.335938 C 297.859375 260.003906 262.496094 247.105469 243.492188 255.976562 " fill-opacity="1" fill-rule="nonzero"/><path fill="#bde1ec" d="M 462.972656 330.394531 C 452.714844 324.222656 441.535156 319.054688 430.5 314.769531 C 444.484375 348.132812 464.007812 448.816406 459.585938 465.332031 C 456.972656 475.082031 450.21875 484.746094 446.617188 494.277344 C 457.222656 506.910156 469.46875 519.886719 486.398438 524.101562 C 498.4375 527.097656 509.480469 529.726562 519.398438 533.402344 C 508.136719 496.105469 461.773438 363.621094 462.972656 330.394531 " fill-opacity="1" fill-rule="nonzero"/><path fill="#bde1ec" d="M 374.882812 300.726562 C 359.15625 298.269531 344.894531 295.382812 330.210938 284.339844 C 315.878906 273.558594 300.960938 265.03125 287.128906 259.636719 C 298.472656 267.109375 310.988281 277 315.445312 286.550781 C 324.316406 305.550781 332.570312 429.734375 340.191406 442.964844 C 343.027344 447.894531 350.898438 453.675781 360.351562 458.78125 C 383.160156 462.222656 399.011719 461.25 411.757812 464.691406 C 412.851562 457.679688 406.441406 446.851562 401.121094 435.929688 C 393.464844 420.203125 359.5 313.996094 366.785156 304.816406 C 368.332031 302.859375 371.210938 301.550781 374.882812 300.726562 " fill-opacity="1" fill-rule="nonzero"/><path fill="#316a2e" d="M 563.320312 547.148438 C 563.320312 547.148438 587.617188 620.265625 558.042969 638.703125 C 558.042969 638.703125 529.855469 596.902344 528.933594 574.484375 C 528.007812 552.0625 540.191406 528.964844 519.8125 496.28125 C 499.433594 463.589844 554.847656 508.085938 563.320312 547.148438 " fill-opacity="1" fill-rule="nonzero"/><path fill="#265125" d="M 526.433594 509.128906 C 537.097656 535.246094 528.132812 555.121094 528.9375 574.484375 C 528.976562 575.539062 529.097656 576.652344 529.257812 577.785156 C 530.734375 569.367188 533.078125 559.871094 536.308594 558.890625 C 541.742188 557.238281 570.917969 590.449219 567.632812 627.851562 C 581.183594 600.902344 563.320312 547.148438 563.320312 547.148438 C 562.292969 542.410156 560.570312 537.589844 558.382812 532.835938 C 554.386719 527.558594 551.261719 523.757812 549.945312 522.832031 C 546.851562 520.664062 535.601562 514.269531 526.433594 509.128906 " fill-opacity="1" fill-rule="nonzero"/><path fill="#f46b20" d="M 317.636719 327.175781 C 340.089844 333.761719 360.582031 352.257812 389.53125 357.253906 C 418.46875 362.25 501.164062 383.023438 523.261719 421.824219 C 509.085938 393.542969 498.472656 363.171875 493.785156 356.890625 C 476.015625 333.078125 441.890625 317.839844 413.117188 308.640625 C 380.078125 298.070312 355.792969 303.578125 330.207031 284.335938 C 297.859375 260.003906 262.496094 247.105469 243.492188 255.976562 L 251.558594 325.808594 C 268.105469 324.378906 301.191406 322.351562 317.636719 327.175781 " fill-opacity="1" fill-rule="nonzero"/><path fill="#408835" d="M 427.964844 473.28125 C 443.769531 487.308594 458.910156 517.265625 486.398438 524.101562 C 513.890625 530.941406 536.152344 535.875 551.804688 555.761719 C 567.449219 575.644531 573.054688 602.527344 573.054688 602.527344 C 573.054688 602.527344 577.675781 548.601562 561.359375 501.257812 C 559.945312 497.15625 558.632812 493.425781 557.378906 489.980469 C 542.03125 475.976562 527.1875 470.136719 513.214844 468.109375 C 484.355469 463.9375 473.71875 457.660156 452.753906 435.046875 C 431.785156 412.445312 411.199219 414.820312 397.550781 412.21875 C 383.898438 409.628906 368.78125 408.894531 342.726562 392.691406 C 306.890625 370.40625 300.980469 370.8125 300.980469 370.8125 C 281.28125 366.417969 268.816406 373.433594 257.492188 377.167969 L 265.464844 446.164062 C 265.464844 446.164062 283.800781 431.53125 296.53125 433.398438 C 309.261719 435.265625 325.542969 453.40625 359.523438 458.664062 C 393.507812 463.914062 412.160156 459.257812 427.964844 473.28125 " fill-opacity="1" fill-rule="nonzero"/><path fill="#408835" d="M 427.964844 473.28125 C 443.769531 487.308594 458.910156 517.265625 486.398438 524.101562 C 513.890625 530.941406 536.152344 535.875 551.804688 555.761719 C 567.449219 575.644531 573.054688 602.527344 573.054688 602.527344 C 573.054688 602.527344 577.675781 548.601562 561.359375 501.257812 C 559.945312 497.15625 558.632812 493.425781 557.378906 489.980469 C 542.03125 475.976562 527.1875 470.136719 513.214844 468.109375 C 484.355469 463.9375 473.71875 457.660156 452.753906 435.046875 C 431.785156 412.445312 411.199219 414.820312 397.550781 412.21875 C 383.898438 409.628906 368.78125 408.894531 342.726562 392.691406 C 306.890625 370.40625 300.980469 370.8125 300.980469 370.8125 C 281.28125 366.417969 268.816406 373.433594 257.492188 377.167969 L 265.464844 446.164062 C 265.464844 446.164062 283.800781 431.53125 296.53125 433.398438 C 309.261719 435.265625 325.542969 453.40625 359.523438 458.664062 C 393.507812 463.914062 412.160156 459.257812 427.964844 473.28125 " fill-opacity="1" fill-rule="nonzero"/><path fill="#d8591d" d="M 462.972656 330.394531 C 452.714844 324.222656 441.535156 319.054688 430.5 314.769531 C 435.71875 327.226562 441.714844 349.070312 446.945312 372.410156 C 455.574219 375.425781 464.316406 378.863281 472.734375 382.738281 C 466.632812 359.75 462.609375 340.5 462.972656 330.394531 " fill-opacity="1" fill-rule="nonzero"/><path fill="#d8591d" d="M 366.785156 304.816406 C 368.332031 302.859375 371.210938 301.550781 374.882812 300.726562 C 359.15625 298.269531 344.894531 295.382812 330.210938 284.339844 C 315.878906 273.558594 300.960938 265.03125 287.128906 259.636719 C 298.472656 267.109375 310.988281 277 315.445312 286.550781 C 318.25 292.550781 320.988281 309.066406 323.671875 329.257812 C 339.75 335.4375 355.300781 346.636719 374.277344 353.253906 C 367.875 329.304688 363.75 308.640625 366.785156 304.816406 " fill-opacity="1" fill-rule="nonzero"/><path fill="#3b7c32" d="M 497.421875 465.125 C 481.929688 461.242188 472.238281 454.972656 459.117188 441.710938 C 460.335938 452.914062 460.628906 461.449219 459.585938 465.328125 C 456.972656 475.082031 450.21875 484.75 446.617188 494.273438 C 457.222656 506.90625 469.46875 519.890625 486.398438 524.097656 C 498.4375 527.097656 509.480469 529.726562 519.398438 533.402344 C 515.34375 519.972656 506.726562 494.1875 497.421875 465.125 " fill-opacity="1" fill-rule="nonzero"/><path fill="#3b7c32" d="M 391.882812 411.226562 C 379.589844 409.152344 365.242188 406.703125 342.726562 392.695312 C 338.164062 389.859375 334.089844 387.390625 330.449219 385.246094 C 333.804688 413.242188 337.050781 437.519531 340.191406 442.972656 C 343.027344 447.898438 350.894531 453.683594 360.351562 458.785156 C 383.160156 462.230469 399.011719 461.257812 411.753906 464.695312 C 412.851562 457.683594 406.4375 446.851562 401.121094 435.933594 C 399.265625 432.125 395.863281 422.996094 391.882812 411.226562 " fill-opacity="1" fill-rule="nonzero"/><path fill="#825233" d="M 299.21875 821.421875 L 310.609375 820.101562 L 242.378906 229.5 L 230.992188 230.8125 L 299.21875 821.421875 " fill-opacity="1" fill-rule="nonzero"/><path fill="#76452a" d="M 235.792969 230.261719 L 304.019531 820.863281 L 310.609375 820.101562 L 242.378906 229.5 L 235.792969 230.261719 " fill-opacity="1" fill-rule="nonzero"/><path fill="#683c25" d="M 230.992188 230.8125 L 242.378906 229.5 L 246.105469 223.226562 L 225.933594 225.558594 L 230.992188 230.8125 " fill-opacity="1" fill-rule="nonzero"/><path fill="#825233" d="M 225.378906 220.75 L 245.554688 218.421875 L 246.105469 223.222656 L 225.933594 225.558594 L 225.378906 220.75 " fill-opacity="1" fill-rule="nonzero"/><path fill="#76452a" d="M 225.378906 220.75 L 230.402344 216.695312 L 238.84375 215.722656 L 245.554688 218.421875 L 225.378906 220.75 " fill-opacity="1" fill-rule="nonzero"/><path fill="#825233" d="M 228.964844 201.527344 L 237.097656 200.59375 L 238.84375 215.71875 L 230.710938 216.65625 L 228.964844 201.527344 " fill-opacity="1" fill-rule="nonzero"/><path fill="#76452a" d="M 233.390625 201.023438 L 235.136719 216.152344 L 238.84375 215.71875 L 237.097656 200.59375 L 233.390625 201.023438 " fill-opacity="1" fill-rule="nonzero"/><g clip-path="url(#c5a085bad9)"><path fill="#825233" d="M 223.003906 196.429688 C 223.625 201.800781 228.480469 205.652344 233.855469 205.035156 C 239.226562 204.417969 243.078125 199.554688 242.457031 194.183594 C 241.835938 188.8125 236.976562 184.964844 231.605469 185.582031 C 226.234375 186.203125 222.382812 191.0625 223.003906 196.429688 " fill-opacity="1" fill-rule="nonzero"/></g><path fill="#76452a" d="M 240.261719 189.0625 C 240.3125 189.316406 240.359375 189.574219 240.390625 189.835938 C 241.011719 195.207031 237.15625 200.066406 231.785156 200.6875 C 228.378906 201.082031 225.175781 199.664062 223.136719 197.210938 C 224.109375 202.167969 228.746094 205.621094 233.855469 205.035156 C 239.226562 204.414062 243.078125 199.554688 242.457031 194.183594 C 242.230469 192.226562 241.433594 190.472656 240.261719 189.0625 " fill-opacity="1" fill-rule="nonzero"/><path fill="#283575" d="M 408.875 386.703125 C 409.054688 388.230469 407.960938 389.605469 406.433594 389.789062 C 404.90625 389.960938 403.527344 388.867188 403.347656 387.34375 C 403.171875 385.816406 404.265625 384.433594 405.792969 384.253906 C 407.320312 384.078125 408.703125 385.175781 408.875 386.703125 " fill-opacity="1" fill-rule="nonzero"/><path fill="#283575" d="M 403.78125 366.867188 L 404.007812 378.953125 L 405.855469 384.804688 L 406.320312 378.691406 L 403.78125 366.867188 " fill-opacity="1" fill-rule="nonzero"/><path fill="#283575" d="M 408.441406 407.179688 L 408.21875 395.085938 L 406.367188 389.238281 L 405.902344 395.351562 L 408.441406 407.179688 " fill-opacity="1" fill-rule="nonzero"/><path fill="#283575" d="M 410.726562 367.265625 L 406.855469 378.722656 L 406.621094 384.851562 L 409.121094 379.253906 L 410.726562 367.265625 " fill-opacity="1" fill-rule="nonzero"/><path fill="#283575" d="M 401.492188 406.785156 L 405.367188 395.324219 L 405.601562 389.203125 L 403.101562 394.792969 L 401.492188 406.785156 " fill-opacity="1" fill-rule="nonzero"/><path fill="#283575" d="M 417.066406 369.941406 L 409.585938 379.449219 L 407.316406 385.144531 L 411.546875 380.707031 L 417.066406 369.941406 " fill-opacity="1" fill-rule="nonzero"/><path fill="#283575" d="M 395.15625 404.113281 L 402.636719 394.605469 L 404.90625 388.90625 L 400.675781 393.347656 L 395.15625 404.113281 " fill-opacity="1" fill-rule="nonzero"/><path fill="#283575" d="M 422.042969 374.460938 L 411.867188 381.003906 L 407.863281 385.640625 L 413.3125 382.828125 L 422.042969 374.460938 " fill-opacity="1" fill-rule="nonzero"/><path fill="#283575" d="M 390.179688 399.59375 L 400.351562 393.050781 L 404.359375 388.40625 L 398.910156 391.222656 L 390.179688 399.59375 " fill-opacity="1" fill-rule="nonzero"/><path fill="#283575" d="M 425.503906 381.027344 L 413.65625 383.472656 L 408.25 386.363281 L 414.34375 385.699219 L 425.503906 381.027344 " fill-opacity="1" fill-rule="nonzero"/><path fill="#283575" d="M 386.722656 393.011719 L 398.570312 390.574219 L 403.976562 387.683594 L 397.878906 388.351562 L 386.722656 393.011719 " fill-opacity="1" fill-rule="nonzero"/><path fill="#283575" d="M 426.375 388.15625 L 414.417969 386.316406 L 408.339844 387.148438 L 414.289062 388.644531 L 426.375 388.15625 " fill-opacity="1" fill-rule="nonzero"/><path fill="#283575" d="M 385.847656 385.902344 L 397.804688 387.726562 L 403.882812 386.898438 L 397.933594 385.40625 L 385.847656 385.902344 " fill-opacity="1" fill-rule="nonzero"/><path fill="#283575" d="M 424.78125 394.972656 L 414.164062 389.183594 L 408.167969 387.898438 L 413.25 391.324219 L 424.78125 394.972656 " fill-opacity="1" fill-rule="nonzero"/><path fill="#283575" d="M 387.4375 379.074219 L 398.0625 384.863281 L 404.054688 386.152344 L 398.972656 382.71875 L 387.4375 379.074219 " fill-opacity="1" fill-rule="nonzero"/><path fill="#283575" d="M 421.019531 400.792969 L 412.96875 391.765625 L 407.753906 388.535156 L 411.386719 393.476562 L 421.019531 400.792969 " fill-opacity="1" fill-rule="nonzero"/><path fill="#283575" d="M 391.203125 373.253906 L 399.257812 382.28125 L 404.472656 385.507812 L 400.839844 380.566406 L 391.203125 373.253906 " fill-opacity="1" fill-rule="nonzero"/><path fill="#283575" d="M 415.605469 404.957031 L 411.003906 393.769531 L 407.15625 388.992188 L 408.941406 394.863281 L 415.605469 404.957031 " fill-opacity="1" fill-rule="nonzero"/><path fill="#283575" d="M 396.613281 369.09375 L 401.21875 380.273438 L 405.066406 385.050781 L 403.277344 379.1875 L 396.613281 369.09375 " fill-opacity="1" fill-rule="nonzero"/><path fill="#283575" d="M 428.585938 387.726562 L 427.183594 387.683594 C 427.183594 387.683594 427.148438 388.253906 427.113281 388.816406 C 427.085938 389.097656 427.054688 389.375 427.03125 389.585938 L 427.007812 389.839844 L 426.988281 389.933594 C 426.605469 389.878906 426.234375 389.988281 425.945312 390.195312 L 425.582031 390.5625 L 425.371094 391.050781 L 425.371094 391.578125 L 425.554688 392.066406 C 425.738281 392.363281 426.039062 392.609375 426.410156 392.710938 L 426.386719 392.808594 L 426.3125 393.054688 C 426.25 393.257812 426.164062 393.527344 426.078125 393.792969 L 425.9375 394.1875 L 425.8125 394.523438 L 425.6875 394.851562 L 426.992188 395.378906 L 427.109375 395.0625 L 427.246094 394.699219 L 427.414062 394.226562 L 427.597656 393.664062 L 427.691406 393.347656 L 427.78125 393.023438 L 427.964844 392.335938 L 428.121094 391.625 C 428.230469 391.140625 428.296875 390.65625 428.367188 390.199219 L 428.394531 390.035156 L 428.414062 389.863281 L 428.449219 389.546875 L 428.511719 388.953125 C 428.542969 388.589844 428.554688 388.28125 428.566406 388.070312 L 428.585938 387.726562 " fill-opacity="1" fill-rule="nonzero"/><path fill="#283575" d="M 426.992188 395.375 L 425.6875 394.855469 L 425.652344 394.949219 L 425.550781 395.183594 C 425.464844 395.375 425.355469 395.640625 425.238281 395.894531 C 425.113281 396.140625 424.992188 396.402344 424.898438 396.59375 L 424.78125 396.820312 L 424.734375 396.898438 C 424.394531 396.726562 424.007812 396.695312 423.664062 396.78125 L 423.199219 397.007812 L 422.832031 397.394531 L 422.648438 397.890625 L 422.65625 398.410156 C 422.730469 398.757812 422.921875 399.085938 423.238281 399.3125 L 423.179688 399.398438 L 423.027344 399.601562 L 422.554688 400.21875 L 422.054688 400.8125 L 421.890625 401.007812 L 421.824219 401.074219 L 422.871094 402.007812 L 422.929688 401.945312 L 423.09375 401.757812 C 423.230469 401.59375 423.425781 401.363281 423.664062 401.082031 L 424.023438 400.605469 L 424.421875 400.078125 C 424.679688 399.699219 424.96875 399.296875 425.21875 398.878906 C 425.746094 398.046875 426.1875 397.171875 426.503906 396.503906 C 426.65625 396.171875 426.773438 395.882812 426.859375 395.691406 L 426.957031 395.460938 L 426.992188 395.375 " fill-opacity="1" fill-rule="nonzero"/><path fill="#283575" d="M 422.871094 402.011719 L 421.824219 401.074219 L 421.585938 401.332031 L 421.046875 401.890625 L 420.496094 402.4375 L 420.226562 402.671875 C 419.96875 402.386719 419.617188 402.230469 419.269531 402.203125 L 419.007812 402.203125 L 418.75 402.246094 L 418.277344 402.488281 L 417.929688 402.886719 L 417.765625 403.386719 C 417.71875 403.738281 417.78125 404.109375 418 404.429688 L 417.707031 404.625 L 417.40625 404.824219 L 417.050781 405.042969 L 416.382812 405.433594 L 416.070312 405.601562 L 416.734375 406.835938 L 417.035156 406.679688 L 417.371094 406.484375 L 417.800781 406.226562 C 418.121094 406.042969 418.472656 405.800781 418.855469 405.546875 L 419.144531 405.351562 L 419.429688 405.132812 L 419.722656 404.917969 L 419.871094 404.8125 L 420.011719 404.695312 L 420.582031 404.234375 L 420.855469 403.996094 L 421.113281 403.761719 L 421.367188 403.535156 L 421.605469 403.316406 L 422.027344 402.902344 C 422.292969 402.644531 422.496094 402.414062 422.640625 402.261719 L 422.871094 402.011719 " fill-opacity="1" fill-rule="nonzero"/><path fill="#283575" d="M 416.738281 406.835938 L 416.070312 405.597656 L 415.761719 405.765625 C 415.578125 405.867188 415.316406 405.992188 415.0625 406.109375 L 414.6875 406.285156 L 414.355469 406.425781 L 414.027344 406.558594 C 413.882812 406.203125 413.605469 405.941406 413.289062 405.789062 C 412.964844 405.632812 412.601562 405.597656 412.257812 405.722656 C 411.910156 405.824219 411.636719 406.074219 411.472656 406.386719 C 411.304688 406.695312 411.238281 407.070312 411.332031 407.449219 L 410.992188 407.53125 C 410.785156 407.589844 410.507812 407.636719 410.230469 407.699219 C 409.953125 407.746094 409.679688 407.8125 409.46875 407.832031 L 409.117188 407.882812 L 409.316406 409.273438 L 409.652344 409.230469 L 410.03125 409.167969 L 410.527344 409.066406 L 411.105469 408.949219 L 411.753906 408.792969 L 412.089844 408.707031 L 412.4375 408.605469 L 413.136719 408.390625 C 414.0625 408.074219 414.980469 407.710938 415.640625 407.386719 C 415.972656 407.230469 416.253906 407.101562 416.4375 406.992188 L 416.738281 406.835938 " fill-opacity="1" fill-rule="nonzero"/><path fill="#283575" d="M 409.3125 409.277344 L 409.113281 407.882812 L 408.769531 407.9375 C 408.558594 407.972656 408.273438 407.988281 407.992188 408.015625 L 407.582031 408.054688 L 407.21875 408.070312 L 406.867188 408.089844 C 406.851562 407.699219 406.683594 407.363281 406.4375 407.105469 C 406.183594 406.855469 405.859375 406.695312 405.492188 406.695312 C 405.125 406.671875 404.785156 406.8125 404.523438 407.050781 C 404.257812 407.285156 404.070312 407.613281 404.03125 407.992188 L 403.679688 407.960938 L 403.320312 407.921875 L 402.910156 407.859375 C 402.632812 407.8125 402.351562 407.777344 402.144531 407.734375 L 401.796875 407.660156 L 401.511719 409.03125 L 401.84375 409.097656 L 402.222656 409.171875 L 402.71875 409.25 C 403.082031 409.316406 403.511719 409.355469 403.96875 409.40625 L 404.3125 409.4375 L 404.675781 409.460938 L 405.402344 409.496094 L 406.132812 409.5 L 406.492188 409.503906 L 406.84375 409.496094 C 407.300781 409.476562 407.730469 409.464844 408.097656 409.417969 L 408.597656 409.371094 L 408.980469 409.328125 L 409.3125 409.277344 " fill-opacity="1" fill-rule="nonzero"/><path fill="#283575" d="M 401.515625 409.03125 L 401.800781 407.65625 L 401.453125 407.585938 C 401.246094 407.542969 400.976562 407.472656 400.699219 407.398438 C 400.429688 407.328125 400.152344 407.253906 399.953125 407.1875 L 399.617188 407.082031 C 399.738281 406.707031 399.695312 406.328125 399.542969 406.015625 C 399.394531 405.6875 399.144531 405.425781 398.800781 405.296875 C 398.464844 405.160156 398.101562 405.167969 397.769531 405.304688 C 397.441406 405.433594 397.152344 405.679688 396.984375 406.027344 L 396.667969 405.875 L 396.34375 405.710938 L 395.976562 405.511719 L 395.304688 405.121094 L 395.003906 404.941406 L 394.261719 406.128906 L 394.546875 406.308594 C 394.730469 406.421875 394.996094 406.570312 395.320312 406.75 C 395.960938 407.113281 396.851562 407.53125 397.757812 407.90625 L 398.441406 408.164062 L 398.78125 408.289062 L 399.113281 408.394531 L 399.746094 408.59375 L 400.320312 408.753906 L 400.804688 408.878906 L 401.183594 408.964844 L 401.515625 409.03125 " fill-opacity="1" fill-rule="nonzero"/><path fill="#283575" d="M 394.261719 406.128906 L 395.003906 404.9375 L 394.703125 404.75 L 394.0625 404.316406 L 393.722656 404.078125 L 393.433594 403.859375 L 393.152344 403.648438 C 393.390625 403.339844 393.476562 402.972656 393.453125 402.617188 L 393.320312 402.113281 L 393 401.691406 L 392.542969 401.417969 L 392.285156 401.359375 L 392.027344 401.34375 C 391.679688 401.34375 391.316406 401.484375 391.039062 401.746094 L 390.789062 401.496094 L 390.269531 400.921875 L 389.769531 400.324219 L 389.546875 400.058594 L 388.445312 400.925781 L 388.65625 401.1875 C 388.792969 401.347656 388.980469 401.597656 389.230469 401.859375 L 389.625 402.3125 L 389.847656 402.542969 L 390.085938 402.785156 L 390.332031 403.035156 L 390.585938 403.285156 L 391.125 403.78125 L 391.261719 403.90625 L 391.402344 404.023438 L 391.679688 404.257812 L 391.957031 404.488281 L 392.09375 404.601562 L 392.230469 404.707031 C 392.597656 404.984375 392.929688 405.253906 393.238281 405.457031 L 393.652344 405.742188 L 393.976562 405.949219 L 394.261719 406.128906 " fill-opacity="1" fill-rule="nonzero"/><path fill="#283575" d="M 388.445312 400.921875 L 389.546875 400.058594 L 389.484375 399.980469 L 389.328125 399.777344 L 388.871094 399.152344 L 388.4375 398.507812 L 388.296875 398.296875 L 388.246094 398.214844 C 388.570312 398.003906 388.789062 397.683594 388.882812 397.347656 L 388.921875 396.828125 L 388.769531 396.316406 L 388.429688 395.910156 L 387.976562 395.65625 C 387.644531 395.546875 387.257812 395.554688 386.902344 395.710938 L 386.863281 395.621094 L 386.757812 395.390625 C 386.679688 395.191406 386.570312 394.933594 386.460938 394.671875 C 386.359375 394.40625 386.269531 394.140625 386.199219 393.941406 L 386.113281 393.703125 L 386.078125 393.605469 L 384.746094 394.046875 L 384.773438 394.128906 L 384.859375 394.367188 C 384.933594 394.566406 385.03125 394.859375 385.164062 395.203125 C 385.441406 395.882812 385.824219 396.789062 386.296875 397.648438 C 386.523438 398.082031 386.78125 398.503906 387.015625 398.898438 L 387.378906 399.445312 L 387.710938 399.9375 C 387.929688 400.238281 388.109375 400.488281 388.238281 400.664062 L 388.390625 400.855469 L 388.445312 400.921875 " fill-opacity="1" fill-rule="nonzero"/><path fill="#283575" d="M 384.746094 394.050781 L 386.078125 393.605469 L 385.980469 393.269531 L 385.871094 392.921875 L 385.757812 392.527344 C 385.691406 392.253906 385.625 391.980469 385.570312 391.773438 L 385.511719 391.523438 L 385.492188 391.429688 C 385.875 391.34375 386.1875 391.121094 386.386719 390.835938 L 386.601562 390.359375 L 386.640625 389.832031 L 386.457031 389.335938 L 386.121094 388.941406 C 385.84375 388.71875 385.476562 388.585938 385.089844 388.613281 L 385.082031 388.519531 L 385.070312 388.269531 C 385.0625 388.058594 385.046875 387.777344 385.035156 387.492188 C 385.035156 386.925781 385.042969 386.363281 385.042969 386.363281 L 383.636719 386.316406 L 383.632812 386.65625 C 383.632812 386.863281 383.628906 387.171875 383.632812 387.542969 L 383.660156 388.136719 L 383.675781 388.460938 L 383.683594 388.625 L 383.695312 388.792969 C 383.746094 389.253906 383.777344 389.746094 383.859375 390.222656 L 383.96875 390.953125 L 384.109375 391.644531 L 384.175781 391.980469 L 384.398438 392.871094 L 384.535156 393.347656 L 384.648438 393.726562 L 384.746094 394.050781 " fill-opacity="1" fill-rule="nonzero"/><path fill="#283575" d="M 383.636719 386.316406 L 385.042969 386.363281 C 385.042969 386.363281 385.074219 385.792969 385.105469 385.230469 C 385.136719 384.949219 385.167969 384.671875 385.1875 384.460938 L 385.21875 384.207031 L 385.234375 384.113281 C 385.617188 384.160156 385.992188 384.058594 386.28125 383.855469 L 386.644531 383.488281 L 386.855469 383 L 386.851562 382.46875 L 386.667969 381.980469 C 386.484375 381.683594 386.1875 381.433594 385.8125 381.332031 L 385.835938 381.238281 L 385.910156 380.992188 C 385.972656 380.789062 386.0625 380.519531 386.144531 380.25 L 386.285156 379.867188 L 386.410156 379.519531 L 386.53125 379.191406 L 385.230469 378.667969 L 385.113281 378.988281 L 384.976562 379.347656 L 384.808594 379.824219 L 384.628906 380.390625 L 384.527344 380.699219 L 384.441406 381.027344 L 384.261719 381.710938 L 384.105469 382.429688 C 383.992188 382.90625 383.929688 383.398438 383.851562 383.84375 L 383.828125 384.015625 L 383.808594 384.175781 L 383.773438 384.5 L 383.710938 385.097656 C 383.683594 385.460938 383.667969 385.769531 383.65625 385.976562 L 383.636719 386.316406 " fill-opacity="1" fill-rule="nonzero"/><path fill="#283575" d="M 385.230469 378.667969 L 386.53125 379.195312 L 386.570312 379.101562 L 386.671875 378.871094 C 386.753906 378.675781 386.863281 378.414062 386.980469 378.160156 C 387.105469 377.902344 387.230469 377.648438 387.324219 377.457031 L 387.4375 377.230469 L 387.488281 377.152344 C 387.828125 377.332031 388.214844 377.355469 388.554688 377.265625 L 389.023438 377.042969 L 389.390625 376.660156 L 389.574219 376.160156 L 389.566406 375.644531 C 389.496094 375.296875 389.296875 374.960938 388.984375 374.738281 L 389.039062 374.660156 L 389.195312 374.453125 L 389.664062 373.839844 L 390.164062 373.242188 L 390.332031 373.046875 L 390.398438 372.976562 L 389.351562 372.039062 L 389.292969 372.109375 L 389.128906 372.292969 C 388.992188 372.453125 388.792969 372.691406 388.558594 372.972656 L 388.195312 373.445312 L 387.800781 373.976562 C 387.542969 374.359375 387.253906 374.753906 387.003906 375.175781 C 386.476562 376.003906 386.035156 376.886719 385.71875 377.542969 C 385.5625 377.882812 385.449219 378.164062 385.359375 378.359375 L 385.261719 378.59375 L 385.230469 378.667969 " fill-opacity="1" fill-rule="nonzero"/><path fill="#283575" d="M 389.351562 372.035156 L 390.402344 372.976562 L 390.640625 372.714844 L 391.175781 372.15625 L 391.730469 371.609375 L 391.992188 371.378906 C 392.253906 371.660156 392.605469 371.820312 392.953125 371.847656 L 393.214844 371.847656 L 393.472656 371.800781 L 393.945312 371.5625 L 394.289062 371.160156 L 394.457031 370.664062 C 394.503906 370.304688 394.445312 369.945312 394.222656 369.621094 L 394.515625 369.421875 L 394.816406 369.222656 L 395.171875 369.003906 L 395.839844 368.613281 L 396.152344 368.441406 L 395.488281 367.210938 L 395.191406 367.367188 L 394.851562 367.558594 L 394.421875 367.820312 C 394.101562 368 393.753906 368.25 393.367188 368.503906 L 393.082031 368.699219 L 392.792969 368.914062 L 392.5 369.128906 L 392.351562 369.242188 L 392.210938 369.355469 L 391.640625 369.816406 L 391.371094 370.050781 L 391.105469 370.285156 L 390.855469 370.511719 L 390.621094 370.730469 L 390.195312 371.148438 C 389.929688 371.402344 389.730469 371.632812 389.582031 371.789062 L 389.351562 372.035156 " fill-opacity="1" fill-rule="nonzero"/><path fill="#283575" d="M 395.488281 367.210938 L 396.152344 368.445312 L 396.460938 368.277344 C 396.648438 368.179688 396.90625 368.066406 397.160156 367.941406 L 397.535156 367.765625 L 397.871094 367.625 L 398.195312 367.484375 C 398.339844 367.847656 398.617188 368.109375 398.933594 368.261719 C 399.257812 368.414062 399.621094 368.445312 399.964844 368.332031 C 400.316406 368.21875 400.582031 367.976562 400.75 367.660156 C 400.921875 367.355469 400.988281 366.976562 400.890625 366.597656 L 401.234375 366.515625 C 401.4375 366.457031 401.714844 366.40625 401.988281 366.351562 C 402.269531 366.300781 402.546875 366.242188 402.757812 366.210938 L 403.105469 366.160156 L 402.90625 364.773438 L 402.574219 364.824219 L 402.191406 364.882812 L 401.695312 364.980469 L 401.113281 365.097656 L 400.472656 365.261719 L 400.132812 365.34375 L 399.789062 365.445312 L 399.089844 365.664062 C 398.160156 365.980469 397.242188 366.34375 396.582031 366.660156 C 396.25 366.820312 395.96875 366.949219 395.785156 367.054688 L 395.488281 367.210938 " fill-opacity="1" fill-rule="nonzero"/><path fill="#283575" d="M 402.910156 364.769531 L 403.109375 366.15625 L 403.457031 366.113281 C 403.664062 366.074219 403.949219 366.058594 404.230469 366.03125 L 404.640625 365.996094 L 405.003906 365.976562 L 405.355469 365.960938 C 405.371094 366.351562 405.539062 366.683594 405.789062 366.9375 C 406.035156 367.195312 406.367188 367.355469 406.730469 367.355469 C 407.097656 367.378906 407.4375 367.238281 407.699219 367 C 407.964844 366.765625 408.152344 366.433594 408.191406 366.046875 L 408.542969 366.082031 L 408.902344 366.121094 L 409.3125 366.1875 C 409.59375 366.234375 409.871094 366.273438 410.078125 366.316406 L 410.425781 366.390625 L 410.710938 365.011719 L 410.378906 364.945312 L 409.996094 364.875 L 409.503906 364.796875 C 409.140625 364.726562 408.714844 364.695312 408.257812 364.640625 L 407.90625 364.605469 L 407.550781 364.589844 L 406.820312 364.546875 L 406.089844 364.542969 L 405.730469 364.542969 L 405.378906 364.554688 C 404.921875 364.574219 404.492188 364.589844 404.125 364.628906 L 403.628906 364.675781 L 403.242188 364.722656 L 402.910156 364.769531 " fill-opacity="1" fill-rule="nonzero"/><path fill="#283575" d="M 410.710938 365.015625 L 410.421875 366.394531 L 410.769531 366.464844 C 410.976562 366.503906 411.25 366.582031 411.523438 366.65625 C 411.792969 366.726562 412.070312 366.789062 412.269531 366.863281 L 412.605469 366.972656 C 412.484375 367.339844 412.527344 367.71875 412.675781 368.039062 C 412.824219 368.359375 413.078125 368.628906 413.421875 368.75 C 413.757812 368.898438 414.121094 368.878906 414.453125 368.746094 C 414.777344 368.617188 415.070312 368.378906 415.238281 368.027344 L 415.558594 368.179688 L 415.882812 368.34375 L 416.246094 368.542969 L 416.917969 368.925781 L 417.21875 369.113281 L 417.960938 367.921875 L 417.675781 367.742188 C 417.492188 367.625 417.222656 367.480469 416.902344 367.300781 C 416.261719 366.9375 415.371094 366.523438 414.464844 366.144531 L 413.777344 365.886719 L 413.441406 365.765625 L 413.109375 365.652344 L 412.476562 365.453125 L 411.902344 365.296875 L 411.414062 365.175781 L 411.039062 365.085938 L 410.710938 365.015625 " fill-opacity="1" fill-rule="nonzero"/><path fill="#283575" d="M 417.960938 367.914062 L 417.222656 369.109375 L 417.523438 369.296875 L 418.164062 369.730469 L 418.5 369.964844 L 418.792969 370.183594 L 419.074219 370.398438 C 418.835938 370.707031 418.746094 371.070312 418.773438 371.429688 L 418.90625 371.933594 L 419.226562 372.355469 L 419.679688 372.621094 L 419.9375 372.683594 L 420.199219 372.703125 C 420.546875 372.695312 420.910156 372.5625 421.1875 372.289062 L 421.433594 372.546875 L 421.953125 373.121094 L 422.457031 373.714844 L 422.679688 373.988281 L 423.78125 373.117188 L 423.570312 372.855469 C 423.429688 372.691406 423.246094 372.449219 422.996094 372.179688 L 422.601562 371.738281 L 422.378906 371.503906 L 422.140625 371.257812 L 421.894531 371.011719 L 421.636719 370.761719 L 421.101562 370.261719 L 420.960938 370.140625 L 420.824219 370.023438 L 420.542969 369.78125 L 420.269531 369.554688 L 420.136719 369.445312 L 419.996094 369.335938 C 419.628906 369.0625 419.292969 368.789062 418.984375 368.585938 L 418.570312 368.304688 L 418.25 368.089844 L 417.960938 367.914062 " fill-opacity="1" fill-rule="nonzero"/><path fill="#283575" d="M 423.78125 373.121094 L 422.679688 373.984375 L 422.738281 374.0625 L 422.894531 374.261719 L 423.351562 374.894531 L 423.789062 375.535156 L 423.929688 375.75 L 423.980469 375.832031 C 423.652344 376.039062 423.433594 376.355469 423.34375 376.699219 L 423.300781 377.21875 L 423.453125 377.730469 L 423.796875 378.132812 L 424.25 378.382812 C 424.582031 378.496094 424.96875 378.492188 425.320312 378.335938 L 425.363281 378.421875 L 425.464844 378.652344 C 425.546875 378.851562 425.65625 379.109375 425.761719 379.371094 C 425.863281 379.636719 425.953125 379.902344 426.027344 380.105469 L 426.117188 380.34375 L 426.144531 380.433594 L 427.480469 379.996094 L 427.453125 379.914062 L 427.367188 379.675781 C 427.292969 379.480469 427.195312 379.183594 427.0625 378.84375 C 426.785156 378.164062 426.402344 377.253906 425.929688 376.398438 C 425.707031 375.964844 425.441406 375.546875 425.207031 375.148438 L 424.847656 374.59375 L 424.511719 374.101562 C 424.296875 373.800781 424.117188 373.558594 423.988281 373.382812 L 423.835938 373.1875 L 423.78125 373.121094 " fill-opacity="1" fill-rule="nonzero"/><path fill="#283575" d="M 427.480469 379.996094 L 426.144531 380.433594 L 426.25 380.777344 L 426.351562 381.121094 L 426.46875 381.519531 C 426.535156 381.792969 426.605469 382.0625 426.652344 382.269531 L 426.710938 382.523438 L 426.730469 382.613281 C 426.351562 382.699219 426.039062 382.925781 425.835938 383.210938 L 425.621094 383.683594 L 425.585938 384.21875 L 425.765625 384.710938 L 426.105469 385.105469 C 426.382812 385.324219 426.746094 385.449219 427.132812 385.425781 L 427.144531 385.519531 L 427.15625 385.777344 C 427.164062 385.992188 427.175781 386.273438 427.1875 386.558594 C 427.183594 387.117188 427.183594 387.679688 427.183594 387.679688 L 428.585938 387.722656 L 428.589844 387.390625 C 428.589844 387.179688 428.597656 386.867188 428.59375 386.5 L 428.566406 385.910156 L 428.550781 385.589844 L 428.542969 385.414062 L 428.527344 385.25 C 428.480469 384.789062 428.445312 384.300781 428.367188 383.8125 L 428.253906 383.089844 L 428.117188 382.394531 L 428.050781 382.0625 L 427.972656 381.746094 L 427.828125 381.171875 L 427.6875 380.691406 L 427.578125 380.316406 L 427.480469 379.996094 " fill-opacity="1" fill-rule="nonzero"/><path fill="#040606" d="M 273.203125 600.726562 C 273.203125 600.726562 273.589844 598.117188 275.394531 597.816406 C 277.203125 597.511719 287.46875 606.359375 286.835938 607.597656 C 286.203125 608.839844 287.039062 610.6875 286.863281 611.847656 C 286.683594 613.007812 288.785156 616.191406 288.039062 617.230469 C 288.039062 617.230469 289.234375 622.765625 287.882812 623.382812 C 287.882812 623.382812 290.066406 627.464844 288.527344 628.367188 C 286.984375 629.269531 276.296875 625.960938 274.792969 625.054688 L 273.203125 600.726562 " fill-opacity="1" fill-rule="nonzero"/></svg>